<?xml version="1.0" encoding="UTF-8"?><svg xmlns="http://www.w3.org/2000/svg" xmlns:xlink="http://www.w3.org/1999/xlink" width="810" zoomAndPan="magnify" viewBox="0 0 810 809.999993" height="809.999993" preserveAspectRatio="xMidYMid meet" version="1.0"><defs><filter x="0%" y="0%" width="100%" xmlns:xlink="http://www.w3.org/1999/xlink" xlink:type="simple" xlink:actuate="onLoad" height="100%" id="filter-remove-color" xlink:show="other"><feColorMatrix values="0 0 0 0 1 0 0 0 0 1 0 0 0 0 1 0 0 0 1 0" color-interpolation-filters="sRGB"/></filter><mask id="mask-0"><g filter="url(#filter-remove-color)"><rect x="-81" width="972" fill="rgb(0%, 0%, 0%)" y="-80.999999" height="971.999992" fill-opacity="0.098"/></g></mask><clipPath id="clip-0"><path d="M 52 43 L 759 43 L 759 750 L 52 750 Z M 52 43 " clip-rule="nonzero"/></clipPath><clipPath id="clip-1"><path d="M -26.003906 142.953125 L 658.558594 -34.746094 L 836.257812 649.8125 L 151.695312 827.515625 Z M -26.003906 142.953125 " clip-rule="nonzero"/></clipPath><clipPath id="clip-2"><path d="M -26.003906 142.953125 L 658.558594 -34.746094 L 836.257812 649.8125 L 151.695312 827.515625 Z M -26.003906 142.953125 " clip-rule="nonzero"/></clipPath><clipPath id="clip-3"><path d="M -26.003906 142.953125 L 660.015625 -35.125 L 838.097656 650.894531 L 152.074219 828.976562 Z M -26.003906 142.953125 " clip-rule="nonzero"/></clipPath><clipPath id="clip-4"><path d="M -26.003906 142.953125 L 658.742188 -34.796875 L 836.492188 649.953125 L 151.746094 827.703125 Z M -26.003906 142.953125 " clip-rule="nonzero"/></clipPath><clipPath id="clip-5"><rect x="0" width="810" y="0" height="810"/></clipPath></defs><g mask="url(#mask-0)"><g transform="matrix(1, 0, 0, 1, 0, 0.000000000000039746)"><g id="source-5" clip-path="url(#clip-5)"><g clip-path="url(#clip-0)"><g clip-path="url(#clip-1)"><g clip-path="url(#clip-2)"><g clip-path="url(#clip-3)"><g clip-path="url(#clip-4)"><path fill="rgb(0.389099%, 52.159119%, 81.568909%)" d="M 443.855469 545.160156 C 361.734375 566.476562 277.875 517.183594 256.550781 435.039062 C 235.234375 352.917969 284.527344 269.058594 366.652344 247.742188 C 448.773438 226.425781 532.632812 275.71875 553.949219 357.839844 C 575.273438 439.984375 525.976562 523.839844 443.855469 545.160156 Z M 703.242188 249.160156 L 645.730469 264.089844 C 631.78125 267.710938 616.980469 262.503906 608.441406 250.867188 C 606.144531 247.730469 603.761719 244.636719 601.308594 241.601562 C 592.089844 230.160156 590.914062 214.214844 598.351562 201.53125 L 628.539062 150.183594 C 636.445312 136.730469 631.945312 119.398438 618.488281 111.46875 L 550.53125 71.539062 C 537.070312 63.609375 519.71875 68.113281 511.816406 81.585938 L 480.886719 134.207031 C 473.523438 146.707031 459.285156 153.445312 444.96875 151.199219 C 441.519531 150.652344 438.03125 150.179688 434.558594 149.78125 C 420.027344 148.117188 408.039062 137.71875 404.363281 123.558594 L 389.015625 64.433594 C 385.085938 49.304688 369.644531 40.230469 354.535156 44.152344 L 278.230469 63.957031 C 263.101562 67.886719 254.023438 83.328125 257.953125 98.453125 L 273.300781 157.582031 C 276.976562 171.738281 271.558594 186.65625 259.691406 195.175781 C 256.832031 197.214844 254.03125 199.320312 251.265625 201.480469 C 239.847656 210.40625 224.132812 211.445312 211.617188 204.101562 L 159 173.171875 C 145.519531 165.25 128.1875 169.75 120.285156 183.222656 L 80.328125 251.167969 C 72.40625 264.644531 76.90625 281.976562 90.378906 289.878906 L 141.726562 320.066406 C 154.398438 327.527344 161.125 342.03125 158.613281 356.515625 C 157.96875 360.355469 157.390625 364.21875 156.910156 368.078125 C 155.109375 382.398438 144.726562 394.140625 130.757812 397.769531 L 73.230469 412.703125 C 58.121094 416.625 49.039062 432.046875 52.964844 447.175781 L 72.773438 523.480469 C 76.699219 538.609375 92.140625 547.6875 107.25 543.761719 L 162.691406 529.371094 C 176.90625 525.683594 191.953125 531.128906 200.390625 543.160156 C 202.964844 546.832031 205.621094 550.421875 208.378906 553.925781 C 217.296875 565.304688 218.246094 581.003906 210.914062 593.476562 L 181.96875 642.71875 C 174.042969 656.175781 178.542969 673.507812 192.019531 681.429688 L 259.980469 721.382812 C 273.433594 729.289062 290.769531 724.789062 298.695312 711.332031 L 326.878906 663.363281 C 334.410156 650.574219 349.058594 644.015625 363.683594 646.507812 C 368.121094 647.28125 372.605469 647.902344 377.105469 648.4375 C 391.703125 650.125 403.835938 660.445312 407.53125 674.683594 L 421.492188 728.46875 C 425.421875 743.59375 440.855469 752.652344 455.984375 748.726562 L 532.292969 728.917969 C 547.402344 724.996094 556.480469 709.574219 552.554688 694.445312 L 538.59375 640.660156 C 534.898438 626.425781 540.480469 611.507812 552.414062 602.929688 C 556.085938 600.273438 559.679688 597.554688 563.203125 594.714844 C 574.765625 585.421875 590.773438 584.027344 603.558594 591.542969 L 651.511719 619.746094 C 664.96875 627.65625 682.320312 623.152344 690.226562 609.695312 L 730.179688 541.734375 C 738.082031 528.261719 733.582031 510.929688 720.128906 503.019531 L 670.886719 474.074219 C 658.414062 466.742188 651.609375 452.5625 653.867188 438.285156 C 654.570312 433.882812 655.164062 429.449219 655.609375 424.992188 C 657.128906 410.375 667.628906 398.300781 681.863281 394.605469 L 737.261719 380.222656 C 752.390625 376.296875 761.46875 360.855469 757.542969 345.726562 L 737.734375 269.417969 C 733.804688 254.292969 718.371094 245.234375 703.242188 249.160156 " fill-opacity="1" fill-rule="nonzero"/></g></g></g></g></g></g></g></g></svg>