<?xml version="1.0" encoding="UTF-8"?><svg xmlns="http://www.w3.org/2000/svg" xmlns:xlink="http://www.w3.org/1999/xlink" width="810" zoomAndPan="magnify" viewBox="0 0 810 809.999993" height="809.999993" preserveAspectRatio="xMidYMid meet" version="1.0"><defs><clipPath id="clip-0"><path d="M 196.273438 253 L 607 253 L 607 629 L 196.273438 629 Z M 196.273438 253 " clip-rule="nonzero"/></clipPath></defs><path fill="rgb(0.389099%, 52.159119%, 81.568909%)" d="M 405.003906 22.878906 C 193.964844 22.878906 22.878906 193.964844 22.878906 405.003906 C 22.878906 616.046875 193.964844 787.128906 405.003906 787.128906 C 616.046875 787.128906 787.128906 616.046875 787.128906 405.003906 C 787.128906 193.964844 616.046875 22.878906 405.003906 22.878906 Z M 405.003906 22.878906 " fill-opacity="1" fill-rule="nonzero"/><g clip-path="url(#clip-0)"><path fill="rgb(100%, 100%, 100%)" d="M 592.804688 329.699219 L 571.585938 329.699219 C 567.761719 329.699219 564.628906 332.828125 564.628906 336.65625 C 564.628906 340.480469 567.761719 343.613281 571.585938 343.613281 L 592.804688 343.613281 L 592.804688 524.507812 L 578.890625 524.507812 L 578.890625 446.582031 C 578.890625 442.757812 575.761719 439.625 571.933594 439.625 C 568.109375 439.625 564.976562 442.757812 564.976562 446.582031 L 564.976562 524.507812 L 388.625 524.507812 C 390.363281 522.070312 391.753906 519.289062 392.796875 516.503906 C 394.539062 510.242188 393.84375 503.980469 390.710938 498.414062 L 353.492188 432.667969 C 374.710938 419.796875 402.886719 407.96875 457.84375 407.96875 C 462.714844 410.40625 468.625 412.144531 474.191406 410.054688 C 478.714844 408.316406 482.191406 403.792969 483.234375 398.925781 C 487.0625 383.269531 475.929688 350.917969 455.0625 316.480469 C 432.453125 279.605469 399.753906 244.46875 381.667969 254.90625 C 379.234375 256.296875 376.101562 259.082031 374.710938 264.992188 C 374.015625 267.429688 374.015625 269.863281 374.015625 272.996094 C 338.535156 324.828125 308.621094 344.308594 281.839844 361.355469 C 281.144531 361.703125 267.578125 370.398438 263.054688 373.53125 C 242.1875 388.140625 241.839844 417.363281 253.316406 436.84375 C 261.316406 450.410156 281.144531 460.148438 297.492188 460.148438 C 301.664062 460.148438 305.492188 459.453125 308.621094 458.410156 C 309.667969 458.0625 310.710938 457.714844 311.753906 457.019531 C 311.753906 457.019531 350.015625 523.113281 350.710938 524.160156 L 238.011719 524.160156 L 238.011719 446.582031 C 238.011719 442.757812 234.882812 439.625 231.054688 439.625 C 227.230469 439.625 224.097656 442.757812 224.097656 446.582031 L 224.097656 524.507812 L 210.183594 524.507812 L 210.183594 343.613281 L 230.707031 343.613281 C 234.535156 343.613281 237.664062 340.480469 237.664062 336.65625 C 237.664062 332.828125 234.535156 329.699219 230.707031 329.699219 L 210.183594 329.699219 C 202.53125 329.699219 196.273438 335.960938 196.273438 343.613281 L 196.273438 580.164062 C 196.273438 587.820312 202.53125 594.082031 210.183594 594.082031 L 363.234375 594.082031 L 363.234375 614.953125 L 330.1875 614.953125 C 326.363281 614.953125 323.230469 618.082031 323.230469 621.910156 C 323.230469 625.738281 326.363281 628.867188 330.1875 628.867188 L 472.800781 628.867188 C 476.628906 628.867188 479.757812 625.738281 479.757812 621.910156 C 479.757812 618.082031 476.628906 614.953125 472.800781 614.953125 L 439.757812 614.953125 L 439.757812 594.082031 L 592.804688 594.082031 C 600.457031 594.082031 606.71875 587.820312 606.71875 580.164062 L 606.71875 343.613281 C 606.71875 335.960938 600.457031 329.699219 592.804688 329.699219 Z M 388.625 267.082031 C 388.972656 267.082031 388.972656 267.082031 389.320312 267.082031 C 395.234375 267.082031 417.496094 282.734375 442.886719 324.132812 C 469.324219 366.921875 472.105469 394.054688 468.976562 397.183594 C 465.84375 398.230469 454.367188 391.621094 438.714844 373.53125 C 447.0625 353.351562 441.84375 330.394531 425.148438 315.785156 C 416.800781 308.476562 406.363281 304.304688 395.582031 303.261719 C 386.886719 282.039062 386.539062 269.167969 388.625 267.082031 Z M 427.929688 360.3125 C 423.757812 354.398438 419.234375 347.789062 414.363281 340.480469 C 409.496094 332.828125 405.667969 325.523438 402.191406 318.914062 C 407.058594 320.304688 411.582031 323.089844 415.753906 326.21875 C 425.84375 334.917969 430.363281 347.789062 427.929688 360.3125 Z M 377.144531 292.476562 C 381.667969 308.128906 390.363281 327.609375 402.886719 347.441406 C 413.667969 365.179688 426.886719 382.574219 439.757812 394.402344 C 430.710938 394.75 422.710938 395.792969 415.058594 396.835938 C 404.972656 386.402344 394.539062 372.488281 385.144531 357.179688 C 375.058594 340.828125 367.40625 324.480469 362.886719 310.566406 C 367.40625 305.347656 372.277344 299.085938 377.144531 292.476562 Z M 352.449219 322.742188 C 357.320312 335.613281 364.625 350.222656 373.320312 364.484375 C 381.320312 377.703125 390.015625 389.878906 398.710938 399.96875 C 367.058594 406.925781 348.277344 419.101562 332.277344 429.886719 C 330.1875 431.277344 328.101562 432.667969 326.015625 433.710938 L 291.578125 371.441406 C 310.015625 359.613281 330.1875 346.394531 352.449219 322.742188 Z M 303.753906 445.539062 C 292.96875 449.714844 271.753906 441.015625 265.144531 429.886719 C 257.144531 415.96875 256.796875 394.75 271.054688 385.011719 C 273.839844 382.921875 276.621094 381.183594 279.753906 379.097656 L 314.1875 440.667969 C 311.058594 442.410156 307.578125 444.148438 303.753906 445.539062 Z M 324.273438 451.105469 C 329.492188 447.972656 334.710938 444.84375 339.929688 441.363281 C 340.625 441.015625 340.972656 440.667969 341.667969 440.320312 C 341.667969 440.320312 378.539062 505.375 378.539062 505.375 C 381.320312 509.894531 379.234375 516.15625 374.710938 518.59375 C 369.839844 521.375 363.582031 519.636719 360.796875 514.765625 Z M 425.84375 614.953125 L 377.144531 614.953125 L 377.144531 594.082031 L 425.84375 594.082031 Z M 592.804688 580.164062 L 210.183594 580.164062 L 210.183594 538.421875 L 592.804688 538.421875 Z M 592.804688 580.164062 " fill-opacity="1" fill-rule="nonzero"/></g><path fill="rgb(100%, 100%, 100%)" d="M 558.019531 566.25 L 571.933594 566.25 C 575.761719 566.25 578.890625 563.121094 578.890625 559.292969 C 578.890625 555.46875 575.761719 552.335938 571.933594 552.335938 L 558.019531 552.335938 C 554.195312 552.335938 551.0625 555.46875 551.0625 559.292969 C 551.0625 563.121094 554.195312 566.25 558.019531 566.25 Z M 558.019531 566.25 " fill-opacity="1" fill-rule="nonzero"/><path fill="rgb(100%, 100%, 100%)" d="M 491.933594 339.785156 L 531.238281 358.917969 C 532.28125 359.265625 533.324219 359.613281 534.367188 359.613281 C 535.0625 359.613281 536.105469 359.613281 536.800781 359.265625 C 538.542969 358.570312 539.933594 357.179688 540.628906 355.789062 L 559.410156 315.085938 C 561.847656 309.871094 561.847656 303.957031 560.109375 298.390625 C 558.019531 292.824219 554.195312 288.300781 548.976562 285.867188 C 543.757812 283.429688 537.847656 283.082031 532.28125 284.824219 C 526.714844 286.5625 522.195312 290.738281 519.757812 296.300781 L 516.976562 302.5625 L 511.0625 299.78125 C 505.496094 297.347656 499.585938 297 494.019531 298.738281 C 488.453125 300.824219 484.28125 304.652344 481.496094 310.21875 C 476.277344 321 481.148438 334.21875 491.933594 339.785156 Z M 494.019531 315.785156 C 495.0625 313.695312 496.800781 311.957031 498.539062 311.261719 C 499.234375 310.914062 500.28125 310.914062 500.976562 310.914062 C 502.367188 310.914062 503.410156 311.261719 504.800781 311.609375 L 516.976562 317.523438 C 518.714844 318.21875 520.453125 318.566406 522.195312 317.871094 C 523.933594 317.175781 525.324219 315.785156 526.019531 314.390625 L 531.933594 301.867188 C 532.976562 299.78125 534.367188 298.390625 536.453125 297.695312 C 538.542969 297 540.628906 297 542.367188 298.042969 C 544.453125 299.085938 545.847656 300.824219 546.542969 302.910156 C 547.238281 305 547.238281 307.433594 546.195312 309.171875 L 530.195312 343.265625 L 497.148438 327.261719 C 494.019531 325.175781 492.28125 319.957031 494.019531 315.785156 Z M 494.019531 315.785156 " fill-opacity="1" fill-rule="nonzero"/><path fill="rgb(100%, 100%, 100%)" d="M 606.371094 195.417969 C 603.238281 186.375 593.5 181.503906 584.457031 184.636719 L 535.0625 200.636719 C 530.542969 202.027344 527.0625 205.160156 524.976562 209.335938 C 522.890625 213.507812 522.542969 218.03125 523.933594 222.554688 L 530.542969 242.035156 C 532.976562 249.339844 539.585938 253.863281 546.890625 253.863281 C 548.628906 253.863281 550.367188 253.515625 552.105469 253.167969 L 601.5 237.164062 C 606.023438 235.773438 609.5 232.640625 611.585938 228.46875 C 613.675781 224.292969 614.023438 219.769531 612.628906 215.25 Z M 599.414062 221.511719 C 599.066406 222.207031 598.371094 222.902344 597.324219 223.25 L 548.28125 239.25 C 546.542969 239.945312 544.453125 238.902344 543.757812 237.164062 L 537.148438 217.683594 C 536.800781 216.640625 537.148438 215.945312 537.5 215.25 C 537.847656 214.550781 538.542969 213.855469 539.585938 213.507812 L 588.628906 197.507812 C 588.976562 197.507812 589.324219 197.507812 589.671875 197.507812 C 591.066406 197.507812 592.457031 198.550781 592.804688 199.941406 L 599.414062 219.421875 C 599.761719 220.117188 599.761719 221.164062 599.414062 221.511719 Z M 599.414062 221.511719 " fill-opacity="1" fill-rule="nonzero"/><path fill="rgb(100%, 100%, 100%)" d="M 562.195312 213.160156 L 564.28125 219.769531 L 566.714844 226.378906 L 572.28125 220.8125 L 577.847656 215.25 L 569.847656 214.203125 Z M 562.195312 213.160156 " fill-opacity="1" fill-rule="nonzero"/><path fill="rgb(100%, 100%, 100%)" d="M 430.363281 268.125 C 433.148438 271.253906 437.320312 273.34375 441.84375 273.34375 L 493.671875 273.34375 C 502.367188 273.34375 509.324219 266.386719 509.324219 257.6875 L 509.324219 213.160156 C 509.324219 204.464844 502.367188 197.507812 493.671875 197.507812 L 441.84375 197.507812 C 433.148438 197.507812 426.191406 204.464844 426.191406 213.160156 L 426.191406 258.035156 C 426.191406 261.515625 427.234375 264.296875 428.972656 267.082031 C 429.667969 267.429688 430.015625 267.777344 430.363281 268.125 Z M 446.714844 259.429688 L 460.625 240.296875 L 464.800781 248.296875 L 470.367188 259.429688 Z M 495.410156 258.035156 C 495.410156 259.082031 494.714844 259.777344 493.671875 259.777344 L 485.671875 259.777344 L 479.410156 247.601562 L 485.671875 242.730469 L 495.0625 254.210938 L 495.0625 258.035156 Z M 440.453125 213.160156 C 440.453125 212.117188 441.148438 211.421875 442.191406 211.421875 L 494.019531 211.421875 C 494.714844 211.421875 495.410156 212.117188 495.410156 213.160156 L 495.410156 231.945312 L 492.28125 228.121094 C 489.84375 225.335938 485.671875 224.640625 482.539062 227.074219 L 473.148438 234.730469 L 467.929688 224.292969 C 466.886719 222.207031 464.800781 220.8125 462.367188 220.464844 C 459.929688 220.117188 457.496094 221.511719 456.105469 223.25 L 440.453125 244.816406 Z M 440.453125 213.160156 " fill-opacity="1" fill-rule="nonzero"/></svg>