<?xml version="1.0" encoding="UTF-8"?><svg xmlns="http://www.w3.org/2000/svg" xmlns:xlink="http://www.w3.org/1999/xlink" width="810" zoomAndPan="magnify" viewBox="0 0 810 809.999993" height="809.999993" preserveAspectRatio="xMidYMid meet" version="1.0"><defs><clipPath id="clip-0"><path d="M 169.8125 227.988281 L 641.5625 227.988281 L 641.5625 581.988281 L 169.8125 581.988281 Z M 169.8125 227.988281 " clip-rule="nonzero"/></clipPath></defs><path fill="rgb(0.389099%, 52.159119%, 81.568909%)" d="M 404.910156 22.035156 C 193.457031 22.035156 22.035156 193.457031 22.035156 404.910156 C 22.035156 616.367188 193.457031 787.785156 404.910156 787.785156 C 616.367188 787.785156 787.785156 616.367188 787.785156 404.910156 C 787.785156 193.457031 616.367188 22.035156 404.910156 22.035156 Z M 404.910156 22.035156 " fill-opacity="1" fill-rule="nonzero"/><g clip-path="url(#clip-0)"><path fill="rgb(100%, 100%, 100%)" d="M 626.820312 559.863281 C 626.820312 563.921875 623.507812 567.238281 619.449219 567.238281 L 191.925781 567.238281 C 187.867188 567.238281 184.554688 563.921875 184.554688 559.863281 L 184.554688 286.988281 L 626.820312 286.988281 Z M 184.554688 250.113281 C 184.554688 246.050781 187.867188 242.738281 191.925781 242.738281 L 619.449219 242.738281 C 623.507812 242.738281 626.820312 246.050781 626.820312 250.113281 L 626.820312 272.238281 L 184.554688 272.238281 Z M 619.449219 227.988281 L 191.925781 227.988281 C 179.71875 227.988281 169.8125 237.898438 169.8125 250.113281 L 169.8125 559.863281 C 169.8125 572.078125 179.71875 581.988281 191.925781 581.988281 L 619.449219 581.988281 C 631.65625 581.988281 641.5625 572.078125 641.5625 559.863281 L 641.5625 250.113281 C 641.5625 237.898438 631.65625 227.988281 619.449219 227.988281 " fill-opacity="1" fill-rule="nonzero"/></g><path fill="rgb(100%, 100%, 100%)" d="M 206.667969 250.113281 C 202.609375 250.113281 199.296875 253.425781 199.296875 257.488281 C 199.296875 261.546875 202.609375 264.863281 206.667969 264.863281 C 210.726562 264.863281 214.039062 261.546875 214.039062 257.488281 C 214.039062 253.425781 210.726562 250.113281 206.667969 250.113281 " fill-opacity="1" fill-rule="nonzero"/><path fill="rgb(100%, 100%, 100%)" d="M 236.152344 250.113281 C 232.09375 250.113281 228.78125 253.425781 228.78125 257.488281 C 228.78125 261.546875 232.09375 264.863281 236.152344 264.863281 C 240.210938 264.863281 243.523438 261.546875 243.523438 257.488281 C 243.523438 253.425781 240.210938 250.113281 236.152344 250.113281 " fill-opacity="1" fill-rule="nonzero"/><path fill="rgb(100%, 100%, 100%)" d="M 265.636719 250.113281 C 261.578125 250.113281 258.265625 253.425781 258.265625 257.488281 C 258.265625 261.546875 261.578125 264.863281 265.636719 264.863281 C 269.695312 264.863281 273.007812 261.546875 273.007812 257.488281 C 273.007812 253.425781 269.695312 250.113281 265.636719 250.113281 " fill-opacity="1" fill-rule="nonzero"/><path fill="rgb(100%, 100%, 100%)" d="M 578.476562 335.355469 C 581.125 338.007812 582.59375 341.519531 582.59375 345.265625 C 582.59375 348.925781 581.183594 352.382812 578.648438 355.003906 L 558.839844 335.183594 C 564.164062 330.027344 573.234375 330.113281 578.476562 335.355469 Z M 477.84375 455.890625 L 458.003906 436.042969 L 548.414062 345.613281 L 568.226562 365.433594 Z M 452.792969 451.683594 L 462.207031 461.105469 L 451.238281 462.660156 Z M 440.296875 435.003906 L 435.257812 470.324219 C 434.914062 472.601562 435.691406 474.933594 437.332031 476.574219 C 438.714844 477.957031 440.613281 478.738281 442.542969 478.738281 C 442.886719 478.738281 443.234375 478.707031 443.578125 478.648438 L 478.878906 473.609375 C 480.464844 473.40625 481.933594 472.65625 483.054688 471.535156 L 588.898438 365.605469 C 594.339844 360.160156 597.335938 352.957031 597.335938 345.265625 C 597.335938 337.574219 594.339844 330.34375 588.898438 324.925781 C 578.042969 314.039062 559.097656 314.039062 548.242188 324.925781 L 442.371094 430.828125 C 441.246094 431.953125 440.5 433.421875 440.296875 435.003906 " fill-opacity="1" fill-rule="nonzero"/><path fill="rgb(100%, 100%, 100%)" d="M 538.164062 365.257812 L 477.671875 425.785156 C 474.792969 428.667969 474.792969 433.335938 477.671875 436.214844 C 479.109375 437.65625 480.980469 438.375 482.882812 438.375 C 484.753906 438.375 486.652344 437.65625 488.09375 436.214844 L 548.589844 375.6875 C 551.46875 372.808594 551.46875 368.140625 548.589844 365.257812 C 545.710938 362.378906 541.042969 362.378906 538.164062 365.257812 " fill-opacity="1" fill-rule="nonzero"/><path fill="rgb(100%, 100%, 100%)" d="M 464.65625 382.863281 C 464.65625 378.800781 461.34375 375.488281 457.285156 375.488281 L 354.089844 375.488281 C 350.03125 375.488281 346.71875 378.800781 346.71875 382.863281 C 346.71875 386.921875 350.03125 390.238281 354.089844 390.238281 L 457.285156 390.238281 C 461.34375 390.238281 464.65625 386.921875 464.65625 382.863281 " fill-opacity="1" fill-rule="nonzero"/><path fill="rgb(100%, 100%, 100%)" d="M 324.605469 390.238281 C 328.664062 390.238281 331.976562 386.921875 331.976562 382.863281 C 331.976562 378.800781 328.664062 375.488281 324.605469 375.488281 L 280.378906 375.488281 C 276.320312 375.488281 273.007812 378.800781 273.007812 382.863281 C 273.007812 386.921875 276.320312 390.238281 280.378906 390.238281 L 324.605469 390.238281 " fill-opacity="1" fill-rule="nonzero"/><path fill="rgb(100%, 100%, 100%)" d="M 413.058594 419.738281 L 309.863281 419.738281 C 305.804688 419.738281 302.492188 423.050781 302.492188 427.113281 C 302.492188 431.171875 305.804688 434.488281 309.863281 434.488281 L 413.058594 434.488281 C 417.117188 434.488281 420.429688 431.171875 420.429688 427.113281 C 420.429688 423.050781 417.117188 419.738281 413.058594 419.738281 " fill-opacity="1" fill-rule="nonzero"/><path fill="rgb(100%, 100%, 100%)" d="M 243.523438 427.113281 C 243.523438 431.171875 246.835938 434.488281 250.894531 434.488281 L 280.378906 434.488281 C 284.4375 434.488281 287.75 431.171875 287.75 427.113281 C 287.75 423.050781 284.4375 419.738281 280.378906 419.738281 L 250.894531 419.738281 C 246.835938 419.738281 243.523438 423.050781 243.523438 427.113281 " fill-opacity="1" fill-rule="nonzero"/><path fill="rgb(100%, 100%, 100%)" d="M 413.058594 463.988281 L 354.089844 463.988281 C 350.03125 463.988281 346.71875 467.300781 346.71875 471.363281 C 346.71875 475.421875 350.03125 478.738281 354.089844 478.738281 L 413.058594 478.738281 C 417.117188 478.738281 420.429688 475.421875 420.429688 471.363281 C 420.429688 467.300781 417.117188 463.988281 413.058594 463.988281 " fill-opacity="1" fill-rule="nonzero"/><path fill="rgb(100%, 100%, 100%)" d="M 250.894531 478.738281 L 324.605469 478.738281 C 328.664062 478.738281 331.976562 475.421875 331.976562 471.363281 C 331.976562 467.300781 328.664062 463.988281 324.605469 463.988281 L 250.894531 463.988281 C 246.835938 463.988281 243.523438 467.300781 243.523438 471.363281 C 243.523438 475.421875 246.835938 478.738281 250.894531 478.738281 " fill-opacity="1" fill-rule="nonzero"/><path fill="rgb(100%, 100%, 100%)" d="M 236.152344 522.988281 L 575.222656 522.988281 C 587.429688 522.988281 597.335938 513.078125 597.335938 500.863281 L 597.335938 382.863281 C 597.335938 378.800781 594.023438 375.488281 589.964844 375.488281 C 585.90625 375.488281 582.59375 378.800781 582.59375 382.863281 L 582.59375 500.863281 C 582.59375 504.921875 579.28125 508.238281 575.222656 508.238281 L 236.152344 508.238281 C 232.09375 508.238281 228.78125 504.921875 228.78125 500.863281 L 228.78125 353.363281 C 228.78125 349.300781 232.09375 345.988281 236.152344 345.988281 L 501.511719 345.988281 C 505.570312 345.988281 508.882812 342.671875 508.882812 338.613281 C 508.882812 334.550781 505.570312 331.238281 501.511719 331.238281 L 236.152344 331.238281 C 223.945312 331.238281 214.039062 341.148438 214.039062 353.363281 L 214.039062 500.863281 C 214.039062 513.078125 223.945312 522.988281 236.152344 522.988281 " fill-opacity="1" fill-rule="nonzero"/><path fill="rgb(100%, 100%, 100%)" d="M 516.253906 463.988281 C 512.195312 463.988281 508.882812 467.300781 508.882812 471.363281 C 508.882812 475.421875 512.195312 478.738281 516.253906 478.738281 L 560.480469 478.738281 C 564.539062 478.738281 567.851562 475.421875 567.851562 471.363281 C 567.851562 467.300781 564.539062 463.988281 560.480469 463.988281 L 516.253906 463.988281 " fill-opacity="1" fill-rule="nonzero"/></svg>