<?xml version="1.0" encoding="UTF-8"?><svg xmlns="http://www.w3.org/2000/svg" xmlns:xlink="http://www.w3.org/1999/xlink" width="810" zoomAndPan="magnify" viewBox="0 0 810 809.999993" height="809.999993" preserveAspectRatio="xMidYMid meet" version="1.0"><path fill="rgb(0.389099%, 52.159119%, 81.568909%)" d="M 162.890625 605.402344 C 149.078125 607.339844 135.410156 603.792969 124.386719 595.566406 C 113.222656 587.246094 106.082031 575.140625 104.046875 561.335938 L 103.90625 560.957031 C 99.933594 532.019531 119.421875 506.109375 148.371094 501.902344 C 177.320312 497.789062 203.195312 517.171875 207.59375 546.203125 L 207.59375 546.675781 C 211.566406 575.519531 191.9375 601.285156 162.890625 605.402344 Z M 559.011719 226.535156 C 558.015625 225.304688 556.691406 224.5 555.367188 223.742188 C 553.570312 222.796875 551.253906 222.042969 549.171875 222.515625 L 545.671875 223.035156 C 525.707031 226.0625 505.839844 229.558594 485.121094 233.199219 C 483.324219 233.769531 481.480469 234.382812 479.683594 234.996094 C 476.417969 235.988281 473.15625 237.078125 469.84375 238.257812 C 454.46875 243.601562 440.183594 251.734375 426.75 260.8125 C 412.699219 270.363281 398.558594 280.007812 384.367188 289.605469 C 358.207031 307.386719 332.050781 325.066406 305.890625 342.703125 C 302.53125 344.925781 299.269531 347.195312 296.003906 349.371094 C 281.578125 359.0625 266.296875 369.464844 249.363281 380.859375 C 232.050781 392.585938 219.703125 407.714844 211.804688 427.242188 C 206.601562 439.914062 199.363281 452.398438 192.789062 462.941406 C 187.585938 471.5 180.582031 474.429688 169.089844 472.632812 C 142.882812 468.238281 117.101562 476.464844 98.085938 494.855469 C 79.214844 513.390625 70.507812 538.921875 74.152344 565.070312 L 74.246094 565.683594 C 77.511719 588.566406 90.613281 608.992188 109.867188 621.855469 C 129.355469 634.808594 153.433594 638.921875 176.089844 633.203125 C 217.007812 622.800781 243.308594 583.605469 237.109375 541.949219 C 236.636719 538.6875 236.023438 535.421875 235.078125 532.160156 C 232.285156 521.757812 234.605469 514.242188 243.070312 507.242188 C 295.71875 463.414062 340.042969 425.257812 382.804688 388.472656 C 423.390625 353.625 465.160156 317.550781 514.308594 276.652344 C 514.449219 276.511719 514.542969 276.414062 514.6875 276.273438 C 528.121094 264.878906 541.460938 253.625 554.042969 242.371094 C 555.132812 241.425781 556.078125 240.578125 557.164062 239.628906 C 559.386719 237.644531 560.335938 234.289062 560.429688 231.5 C 560.570312 229.703125 560.191406 227.859375 559.011719 226.535156 " fill-opacity="1" fill-rule="nonzero"/><path fill="rgb(0.389099%, 52.159119%, 81.568909%)" d="M 133.46875 396.792969 C 104.566406 400.90625 78.457031 381.617188 74.152344 352.726562 L 74.152344 352.351562 C 72.164062 338.542969 75.664062 324.878906 83.894531 313.816406 C 92.175781 302.703125 104.332031 295.46875 118.144531 293.4375 C 147.140625 289.132812 173.203125 308.378906 177.652344 337.125 L 177.652344 337.644531 C 181.765625 366.628906 162.324219 392.585938 133.46875 396.792969 Z M 208.066406 343.175781 C 208.066406 339.867188 207.734375 336.511719 207.261719 333.296875 C 201.300781 291.640625 165.070312 261.476562 122.875 262.988281 C 99.507812 263.886719 77.558594 274.714844 62.5625 292.632812 C 47.660156 310.363281 41.039062 333.722656 44.257812 356.558594 L 44.351562 357.171875 C 48.277344 383.320312 63.886719 405.351562 87.253906 417.738281 C 110.71875 430.035156 137.773438 430.507812 161.617188 419.0625 C 172.117188 414.003906 179.78125 414.808594 187.207031 421.570312 L 190.847656 424.878906 C 191.652344 423.175781 192.457031 421.378906 193.167969 419.679688 C 201.632812 398.734375 214.3125 381.996094 231.8125 368.851562 C 228.785156 367.527344 225.804688 366.203125 222.777344 364.925781 C 212.703125 360.578125 208.351562 354.050781 208.066406 343.175781 Z M 605.320312 539.488281 C 604.328125 536.890625 602.433594 533.957031 599.785156 532.679688 C 598.601562 532.066406 597.421875 531.453125 596.09375 530.933594 C 580.769531 523.601562 564.875 516.652344 548.746094 509.511719 C 548.554688 509.511719 548.460938 509.417969 548.273438 509.324219 C 489.472656 483.980469 439.238281 461.238281 390.515625 439.300781 C 382.710938 435.753906 374.90625 432.253906 366.910156 428.613281 C 343.164062 449.136719 318.378906 470.269531 291.511719 492.824219 C 300.78125 495.707031 309.628906 498.542969 318.1875 501.285156 C 322.019531 502.46875 325.851562 503.699219 329.589844 504.878906 C 359.769531 514.429688 389.902344 524.027344 419.984375 533.578125 C 436.304688 538.78125 452.484375 544.027344 468.800781 549.277344 C 484.222656 554.195312 500.257812 557.929688 516.4375 558.640625 C 519.984375 558.828125 523.390625 559.015625 526.9375 559.015625 C 528.734375 559.113281 530.628906 559.113281 532.566406 559.207031 C 553.378906 556.796875 573.53125 554.621094 593.492188 551.878906 L 596.996094 551.359375 C 599.074219 551.167969 601.109375 549.890625 602.625 548.472656 C 603.710938 547.386719 604.753906 546.15625 605.320312 544.738281 C 606.125 543.035156 605.933594 541.238281 605.320312 539.488281 " fill-opacity="1" fill-rule="nonzero"/><path fill="rgb(0.389099%, 52.159119%, 81.568909%)" d="M 685.453125 411.6875 C 663.976562 398.402344 640.464844 387.761719 617.714844 377.457031 C 605.273438 371.828125 593.777344 366.675781 582.519531 361.144531 C 575.328125 357.597656 567.949219 354.097656 560.570312 350.742188 C 541.507812 341.851562 523.53125 333.390625 506.410156 322.65625 C 474.148438 349.796875 444.773438 374.996094 417.855469 398.164062 C 440.800781 413.578125 466.578125 425.445312 491.746094 436.792969 C 503.808594 442.277344 515.871094 447.714844 527.601562 453.578125 C 534.648438 457.078125 541.792969 460.386719 548.933594 463.699219 L 553.617188 465.871094 C 570.835938 473.625 587.15625 480.957031 602.71875 491.167969 C 611.800781 497.078125 618.941406 505.023438 624.429688 514.148438 C 628.261719 518.261719 631.429688 523.128906 633.558594 528.710938 L 633.796875 529.371094 C 636.066406 535.753906 636.492188 542.328125 635.40625 548.617188 C 636.492188 560.910156 635.308594 573.910156 631.195312 586.960938 C 621.402344 618.6875 596 636.085938 557.78125 637.316406 C 548.128906 637.742188 539.332031 637.644531 530.960938 636.890625 C 491.554688 634.054688 463.550781 611.640625 453.144531 575.992188 L 328.074219 536.132812 L 325.757812 536.132812 C 315.585938 638.59375 374.339844 703.414062 505.414062 734.242188 L 514.96875 736.464844 L 514.96875 784.785156 L 583.796875 784.785156 L 583.796875 735.613281 L 602.527344 731.6875 C 614.402344 729.277344 625.519531 727.007812 636.207031 723.652344 C 708.914062 700.71875 750.304688 655.140625 759.246094 588.144531 C 770.078125 507.8125 745.195312 448.425781 685.453125 411.6875 " fill-opacity="1" fill-rule="nonzero"/><path fill="rgb(0.389099%, 52.159119%, 81.568909%)" d="M 367.433594 264.640625 L 409.816406 235.800781 C 427.175781 223.980469 443.542969 215.46875 459.910156 209.75 C 463.457031 208.519531 466.957031 207.335938 470.457031 206.203125 C 472.113281 205.636719 474.195312 204.972656 476.230469 204.359375 L 479.917969 203.460938 L 488.101562 202.042969 C 500.730469 185.539062 520.503906 177.644531 549.738281 177.171875 C 589.09375 177.171875 615.820312 195.1875 627.125 229.277344 C 630.628906 239.535156 632.328125 250.269531 633.984375 260.71875 L 634.316406 262.421875 C 635.027344 266.488281 635.734375 270.648438 636.539062 274.761719 L 758.0625 274.761719 C 761.65625 240.671875 752.714844 199.628906 735.214844 170.03125 C 708.203125 124.261719 665.488281 96.605469 600.730469 82.890625 L 590.890625 80.8125 L 590.890625 23.648438 L 522.492188 23.648438 L 522.492188 76.367188 L 513.742188 79.109375 C 506.457031 81.378906 499.359375 83.507812 492.453125 85.539062 C 472.730469 91.402344 454.042969 96.933594 437.015625 105.445312 C 383.894531 132.066406 349.316406 184.3125 344.535156 245.304688 C 343.589844 256.984375 343.875 268.472656 345.152344 279.679688 C 352.578125 274.667969 360.003906 269.65625 367.433594 264.640625 " fill-opacity="1" fill-rule="nonzero"/></svg>