<?xml version="1.0" encoding="UTF-8"?><svg xmlns="http://www.w3.org/2000/svg" xmlns:xlink="http://www.w3.org/1999/xlink" width="810" zoomAndPan="magnify" viewBox="0 0 810 809.999993" height="809.999993" preserveAspectRatio="xMidYMid meet" version="1.0"><defs><clipPath id="clip-0"><path d="M 343 578 L 405 578 L 405 623.289062 L 343 623.289062 Z M 343 578 " clip-rule="nonzero"/></clipPath><clipPath id="clip-1"><path d="M 367 202.46875 L 615.269531 202.46875 L 615.269531 420 L 367 420 Z M 367 202.46875 " clip-rule="nonzero"/></clipPath></defs><path fill="rgb(0.389099%, 52.159119%, 81.568909%)" d="M 405.039062 22.335938 C 193.679688 22.335938 22.335938 193.679688 22.335938 405.039062 C 22.335938 616.398438 193.679688 787.738281 405.039062 787.738281 C 616.398438 787.738281 787.738281 616.398438 787.738281 405.039062 C 787.738281 193.679688 616.398438 22.335938 405.039062 22.335938 Z M 405.039062 22.335938 " fill-opacity="1" fill-rule="nonzero"/><path fill="rgb(100%, 100%, 100%)" d="M 237.015625 473.753906 L 211.292969 473.753906 L 211.292969 401.328125 C 211.292969 357.855469 228.234375 316.988281 258.996094 286.253906 C 289.746094 255.5 330.664062 238.5625 374.214844 238.5625 L 374.214844 252.578125 C 334.417969 252.578125 297.023438 268.058594 268.921875 296.160156 C 240.808594 324.25 225.324219 361.597656 225.324219 401.328125 L 225.324219 459.734375 L 237.015625 459.734375 Z M 237.015625 473.753906 " fill-opacity="1" fill-rule="nonzero"/><path fill="rgb(100%, 100%, 100%)" d="M 537.136719 473.753906 L 511.414062 473.753906 L 511.414062 459.738281 L 523.105469 459.738281 L 523.105469 401.328125 C 523.105469 389.679688 521.746094 378.082031 519.058594 366.851562 L 532.707031 363.589844 C 535.648438 375.886719 537.136719 388.585938 537.136719 401.328125 Z M 537.136719 473.753906 " fill-opacity="1" fill-rule="nonzero"/><path fill="rgb(100%, 100%, 100%)" d="M 288.765625 315.976562 L 278.84375 306.066406 C 304.316406 280.621094 338.183594 266.605469 374.203125 266.605469 L 374.203125 280.625 C 341.933594 280.625 311.589844 293.179688 288.765625 315.976562 Z M 288.765625 315.976562 " fill-opacity="1" fill-rule="nonzero"/><path fill="rgb(100%, 100%, 100%)" d="M 473.984375 531.390625 C 466.277344 531.390625 459.035156 528.394531 453.585938 522.957031 C 448.140625 517.511719 445.136719 510.273438 445.136719 502.574219 L 445.136719 430.925781 C 445.136719 423.226562 448.140625 415.988281 453.585938 410.550781 C 459.039062 405.109375 466.277344 402.109375 473.984375 402.109375 C 481.683594 402.109375 488.925781 405.109375 494.378906 410.550781 C 499.828125 415.988281 502.828125 423.226562 502.828125 430.925781 L 502.828125 451.175781 L 488.796875 451.175781 L 488.796875 430.925781 C 488.796875 426.972656 487.257812 423.257812 484.457031 420.46875 C 481.65625 417.671875 477.9375 416.128906 473.984375 416.128906 C 470.027344 416.128906 466.308594 417.671875 463.507812 420.46875 C 460.710938 423.257812 459.167969 426.972656 459.167969 430.925781 L 459.167969 502.574219 C 459.167969 506.53125 460.710938 510.246094 463.507812 513.042969 C 466.300781 515.832031 470.023438 517.375 473.984375 517.375 C 477.941406 517.375 481.664062 515.835938 484.457031 513.042969 C 487.253906 510.25 488.796875 506.53125 488.796875 502.574219 L 488.796875 482.328125 L 502.828125 482.328125 L 502.828125 502.574219 C 502.828125 510.273438 499.828125 517.511719 494.382812 522.957031 C 488.929688 528.394531 481.683594 531.390625 473.984375 531.390625 Z M 473.984375 531.390625 " fill-opacity="1" fill-rule="nonzero"/><path fill="rgb(100%, 100%, 100%)" d="M 495.808594 489.339844 C 483.34375 489.339844 473.203125 479.207031 473.203125 466.753906 C 473.203125 454.304688 483.34375 444.171875 495.808594 444.171875 C 508.277344 444.171875 518.414062 454.304688 518.414062 466.753906 C 518.417969 479.203125 508.277344 489.339844 495.808594 489.339844 Z M 495.808594 458.1875 C 491.082031 458.1875 487.234375 462.027344 487.234375 466.753906 C 487.234375 471.476562 491.082031 475.320312 495.808594 475.320312 C 500.539062 475.320312 504.382812 471.476562 504.382812 466.753906 C 504.386719 462.027344 500.539062 458.1875 495.808594 458.1875 Z M 495.808594 458.1875 " fill-opacity="1" fill-rule="nonzero"/><path fill="rgb(100%, 100%, 100%)" d="M 274.421875 531.390625 C 266.714844 531.390625 259.472656 528.394531 254.023438 522.957031 C 248.578125 517.511719 245.578125 510.273438 245.578125 502.574219 L 245.578125 482.328125 L 259.609375 482.328125 L 259.609375 502.574219 C 259.609375 506.53125 261.148438 510.246094 263.949219 513.042969 C 266.742188 515.832031 270.460938 517.375 274.421875 517.375 C 278.378906 517.375 282.101562 515.835938 284.894531 513.042969 C 287.691406 510.25 289.230469 506.53125 289.230469 502.574219 L 289.230469 430.925781 C 289.230469 426.972656 287.691406 423.257812 284.894531 420.46875 C 282.09375 417.671875 278.375 416.128906 274.421875 416.128906 C 270.464844 416.128906 266.746094 417.671875 263.945312 420.46875 C 261.148438 423.257812 259.609375 426.972656 259.609375 430.925781 L 259.609375 451.175781 L 245.578125 451.175781 L 245.578125 430.925781 C 245.578125 423.226562 248.578125 415.988281 254.023438 410.550781 C 259.476562 405.109375 266.71875 402.109375 274.421875 402.109375 C 282.121094 402.109375 289.363281 405.109375 294.816406 410.550781 C 300.265625 415.988281 303.265625 423.226562 303.265625 430.925781 L 303.265625 502.574219 C 303.265625 510.273438 300.265625 517.511719 294.820312 522.957031 C 289.367188 528.394531 282.125 531.390625 274.421875 531.390625 Z M 274.421875 531.390625 " fill-opacity="1" fill-rule="nonzero"/><path fill="rgb(100%, 100%, 100%)" d="M 252.59375 489.339844 C 240.125 489.339844 229.988281 479.207031 229.988281 466.753906 C 229.988281 454.304688 240.125 444.171875 252.59375 444.171875 C 265.058594 444.171875 275.199219 454.304688 275.199219 466.753906 C 275.199219 479.203125 265.058594 489.339844 252.59375 489.339844 Z M 252.59375 458.1875 C 247.863281 458.1875 244.019531 462.027344 244.019531 466.753906 C 244.019531 471.476562 247.863281 475.320312 252.59375 475.320312 C 257.324219 475.320312 261.167969 471.476562 261.167969 466.753906 C 261.167969 462.027344 257.324219 458.1875 252.59375 458.1875 Z M 252.59375 458.1875 " fill-opacity="1" fill-rule="nonzero"/><g clip-path="url(#clip-0)"><path fill="rgb(100%, 100%, 100%)" d="M 404.605469 623.289062 L 366.40625 623.289062 C 353.941406 623.289062 343.800781 613.160156 343.800781 600.703125 C 343.800781 588.25 353.941406 578.121094 366.40625 578.121094 L 404.605469 578.121094 Z M 366.40625 592.136719 C 361.679688 592.136719 357.832031 595.980469 357.832031 600.703125 C 357.832031 605.425781 361.679688 609.269531 366.40625 609.269531 L 390.574219 609.269531 L 390.574219 592.136719 Z M 366.40625 592.136719 " fill-opacity="1" fill-rule="nonzero"/></g><path fill="rgb(100%, 100%, 100%)" d="M 397.589844 607.714844 L 397.589844 593.695312 C 447.882812 593.695312 488.796875 552.820312 488.796875 502.578125 L 502.828125 502.578125 C 502.828125 560.546875 455.617188 607.714844 397.589844 607.714844 Z M 397.589844 607.714844 " fill-opacity="1" fill-rule="nonzero"/><g clip-path="url(#clip-1)"><path fill="rgb(100%, 100%, 100%)" d="M 390.574219 419.539062 L 390.574219 372.242188 L 367.1875 372.242188 L 367.1875 202.46875 L 615.082031 202.46875 L 615.082031 372.242188 L 437.910156 372.242188 Z M 381.21875 358.222656 L 404.605469 358.222656 L 404.605469 385.691406 L 432.101562 358.222656 L 601.050781 358.222656 L 601.050781 216.484375 L 381.21875 216.484375 Z M 381.21875 358.222656 " fill-opacity="1" fill-rule="nonzero"/></g><path fill="rgb(100%, 100%, 100%)" d="M 419.414062 249.195312 L 473.984375 249.195312 L 473.984375 263.214844 L 419.414062 263.214844 Z M 419.414062 249.195312 " fill-opacity="1" fill-rule="nonzero"/><path fill="rgb(100%, 100%, 100%)" d="M 419.414062 280.34375 L 562.851562 280.34375 L 562.851562 294.363281 L 419.414062 294.363281 Z M 419.414062 280.34375 " fill-opacity="1" fill-rule="nonzero"/><path fill="rgb(100%, 100%, 100%)" d="M 419.414062 311.496094 L 530.109375 311.496094 L 530.109375 325.511719 L 419.414062 325.511719 Z M 419.414062 311.496094 " fill-opacity="1" fill-rule="nonzero"/></svg>