<?xml version="1.0" encoding="UTF-8"?><svg xmlns="http://www.w3.org/2000/svg" xmlns:xlink="http://www.w3.org/1999/xlink" width="810" zoomAndPan="magnify" viewBox="0 0 810 809.999993" height="809.999993" preserveAspectRatio="xMidYMid meet" version="1.0"><defs><clipPath id="clip-0"><path d="M 183 193.410156 L 627.773438 193.410156 L 627.773438 616.410156 L 183 616.410156 Z M 183 193.410156 " clip-rule="nonzero"/></clipPath></defs><path fill="rgb(0.389099%, 52.159119%, 81.568909%)" d="M 405.054688 22.554688 C 193.804688 22.554688 22.554688 193.804688 22.554688 405.054688 C 22.554688 616.304688 193.804688 787.554688 405.054688 787.554688 C 616.304688 787.554688 787.554688 616.304688 787.554688 405.054688 C 787.554688 193.804688 616.304688 22.554688 405.054688 22.554688 Z M 405.054688 22.554688 " fill-opacity="1" fill-rule="nonzero"/><g clip-path="url(#clip-0)"><path fill="rgb(100%, 100%, 100%)" d="M 575.886719 275.261719 C 579.96875 275.261719 583.296875 278.589844 583.296875 282.667969 L 583.296875 504.925781 C 583.296875 509.007812 579.96875 512.335938 575.886719 512.335938 L 568.472656 512.335938 L 568.472656 341.9375 C 568.472656 338.929688 566.679688 336.238281 563.898438 335.109375 C 561.117188 333.949219 557.933594 334.585938 555.820312 336.699219 L 479.523438 412.957031 L 440.285156 373.742188 C 437.390625 370.847656 432.699219 370.847656 429.804688 373.742188 L 323.855469 479.632812 L 292.035156 447.828125 C 289.136719 444.933594 284.449219 444.933594 281.550781 447.828125 L 244.488281 484.871094 C 243.097656 486.261719 242.316406 488.140625 242.316406 490.109375 L 242.316406 512.335938 L 234.90625 512.335938 C 230.820312 512.335938 227.492188 509.007812 227.492188 504.925781 L 227.492188 441.316406 L 286.792969 382.046875 L 318.613281 413.851562 C 321.511719 416.746094 326.203125 416.746094 329.097656 413.851562 L 435.046875 307.960938 L 474.28125 347.175781 C 477.175781 350.070312 481.867188 350.070312 484.761719 347.175781 L 556.71875 275.261719 Z M 257.140625 512.335938 L 257.140625 493.175781 L 286.792969 463.542969 L 318.613281 495.347656 C 321.511719 498.242188 326.203125 498.242188 329.097656 495.347656 L 435.046875 389.457031 L 474.28125 428.671875 C 477.175781 431.566406 481.867188 431.566406 484.761719 428.671875 L 553.648438 359.824219 L 553.648438 512.335938 Z M 435.046875 579.011719 L 375.746094 579.011719 L 375.746094 527.152344 L 435.046875 527.152344 Z M 486.933594 571.605469 C 495.101562 571.605469 501.757812 578.261719 501.757812 586.421875 C 501.757812 594.582031 495.101562 601.238281 486.933594 601.238281 L 323.855469 601.238281 C 315.691406 601.238281 309.03125 594.582031 309.03125 586.421875 C 309.03125 578.261719 315.691406 571.605469 323.855469 571.605469 L 360.917969 571.605469 L 360.917969 586.421875 C 360.917969 590.503906 364.25 593.828125 368.332031 593.828125 L 442.457031 593.828125 C 446.542969 593.828125 449.871094 590.503906 449.871094 586.421875 L 449.871094 571.605469 Z M 227.492188 282.667969 C 227.492188 278.589844 230.820312 275.261719 234.90625 275.261719 L 535.753906 275.261719 L 479.523438 331.460938 L 440.285156 292.25 C 437.390625 289.355469 432.699219 289.355469 429.804688 292.25 L 323.855469 398.140625 L 292.035156 366.335938 C 289.136719 363.441406 284.449219 363.441406 281.550781 366.335938 L 227.492188 420.363281 Z M 623.199219 194.34375 C 622.300781 193.96875 621.316406 193.765625 620.363281 193.765625 L 575.886719 193.765625 C 571.804688 193.765625 568.472656 197.09375 568.472656 201.175781 C 568.472656 205.253906 571.804688 208.582031 575.886719 208.582031 L 602.46875 208.582031 L 550.578125 260.445312 L 234.90625 260.445312 C 222.628906 260.445312 212.667969 270.398438 212.667969 282.667969 L 212.667969 435.183594 L 185.1875 462.644531 C 182.292969 465.539062 182.292969 470.226562 185.1875 473.121094 C 186.636719 474.570312 188.515625 475.292969 190.429688 475.292969 C 192.339844 475.292969 194.222656 474.570312 195.667969 473.121094 L 212.667969 456.132812 L 212.667969 504.925781 C 212.667969 517.199219 222.628906 527.152344 234.90625 527.152344 L 360.917969 527.152344 L 360.917969 556.785156 L 323.855469 556.785156 C 307.496094 556.785156 294.207031 570.070312 294.207031 586.421875 C 294.207031 602.773438 307.496094 616.054688 323.855469 616.054688 L 486.933594 616.054688 C 503.292969 616.054688 516.585938 602.773438 516.585938 586.421875 C 516.585938 570.070312 503.292969 556.785156 486.933594 556.785156 L 449.871094 556.785156 L 449.871094 527.152344 L 575.886719 527.152344 C 588.164062 527.152344 598.125 517.199219 598.125 504.925781 L 598.125 282.667969 C 598.125 270.398438 588.164062 260.445312 575.886719 260.445312 L 571.542969 260.445312 L 612.949219 219.058594 L 612.949219 245.625 C 612.949219 249.707031 616.277344 253.035156 620.363281 253.035156 C 624.445312 253.035156 627.773438 249.707031 627.773438 245.625 L 627.773438 201.175781 C 627.773438 200.21875 627.570312 199.234375 627.195312 198.339844 C 626.441406 196.542969 624.996094 195.097656 623.199219 194.34375 " fill-opacity="1" fill-rule="nonzero"/></g></svg>