<?xml version="1.0" encoding="UTF-8"?><svg xmlns="http://www.w3.org/2000/svg" xmlns:xlink="http://www.w3.org/1999/xlink" width="810" zoomAndPan="magnify" viewBox="0 0 810 809.999993" height="809.999993" preserveAspectRatio="xMidYMid meet" version="1.0"><defs><clipPath id="clip-0"><path d="M 27 117 L 699 117 L 699 787.597656 L 27 787.597656 Z M 27 117 " clip-rule="nonzero"/></clipPath><clipPath id="clip-1"><path d="M 96 521 L 630 521 L 630 787.597656 L 96 787.597656 Z M 96 521 " clip-rule="nonzero"/></clipPath><clipPath id="clip-2"><path d="M 363 452 L 699 452 L 699 787.597656 L 363 787.597656 Z M 363 452 " clip-rule="nonzero"/></clipPath><clipPath id="clip-3"><path d="M 405 22.597656 L 780 22.597656 L 780 613 L 405 613 Z M 405 22.597656 " clip-rule="nonzero"/></clipPath></defs><path fill="rgb(11.759949%, 63.919067%, 38.038635%)" d="M 27.929688 718.820312 L 27.929688 174.332031 C 27.929688 172.453125 28.023438 170.582031 28.207031 168.714844 C 28.394531 166.84375 28.667969 164.988281 29.035156 163.148438 C 29.402344 161.308594 29.859375 159.488281 30.402344 157.691406 C 30.949219 155.894531 31.582031 154.128906 32.300781 152.394531 C 33.019531 150.660156 33.820312 148.964844 34.707031 147.308594 C 35.589844 145.652344 36.554688 144.042969 37.597656 142.484375 C 38.640625 140.921875 39.757812 139.414062 40.949219 137.964844 C 42.140625 136.511719 43.398438 135.121094 44.726562 133.792969 C 46.054688 132.464844 47.445312 131.207031 48.894531 130.015625 C 50.347656 128.824219 51.851562 127.707031 53.414062 126.664062 C 54.972656 125.617188 56.582031 124.652344 58.238281 123.769531 C 59.890625 122.882812 61.585938 122.078125 63.320312 121.359375 C 65.054688 120.640625 66.820312 120.007812 68.617188 119.460938 C 70.414062 118.914062 72.234375 118.457031 74.074219 118.089844 C 75.914062 117.722656 77.769531 117.445312 79.640625 117.261719 C 81.507812 117.078125 83.378906 116.984375 85.257812 116.980469 L 629.722656 116.980469 Z M 27.929688 718.820312 " fill-opacity="1" fill-rule="evenodd"/><g clip-path="url(#clip-0)"><path fill="rgb(99.609375%, 85.879517%, 26.269531%)" d="M 27.929688 730.222656 L 27.929688 718.796875 L 629.746094 117.027344 L 641.175781 117.027344 C 643.050781 117.03125 644.925781 117.121094 646.792969 117.308594 C 648.660156 117.492188 650.515625 117.769531 652.359375 118.132812 C 654.199219 118.5 656.019531 118.957031 657.816406 119.503906 C 659.613281 120.046875 661.378906 120.679688 663.113281 121.398438 C 664.847656 122.117188 666.542969 122.917969 668.199219 123.804688 C 669.851562 124.691406 671.460938 125.652344 673.023438 126.695312 C 674.585938 127.738281 676.089844 128.855469 677.542969 130.046875 C 678.992188 131.238281 680.382812 132.496094 681.710938 133.824219 C 683.039062 135.152344 684.300781 136.542969 685.492188 137.992188 C 686.683594 139.445312 687.800781 140.949219 688.84375 142.511719 C 689.886719 144.070312 690.851562 145.679688 691.738281 147.335938 C 692.625 148.992188 693.425781 150.6875 694.144531 152.421875 C 694.867188 154.152344 695.5 155.917969 696.042969 157.714844 C 696.589844 159.511719 697.046875 161.332031 697.414062 163.171875 C 697.78125 165.015625 698.058594 166.867188 698.246094 168.738281 C 698.429688 170.605469 698.523438 172.480469 698.523438 174.355469 L 698.523438 185.832031 L 96.710938 787.597656 L 85.234375 787.597656 C 83.355469 787.597656 81.484375 787.503906 79.613281 787.320312 C 77.746094 787.132812 75.890625 786.855469 74.050781 786.488281 C 72.210938 786.121094 70.390625 785.664062 68.59375 785.117188 C 66.796875 784.574219 65.03125 783.941406 63.296875 783.21875 C 61.5625 782.5 59.867188 781.699219 58.214844 780.8125 C 56.558594 779.925781 54.949219 778.960938 53.386719 777.917969 C 51.828125 776.875 50.320312 775.757812 48.871094 774.566406 C 47.417969 773.375 46.03125 772.113281 44.703125 770.785156 C 43.375 769.457031 42.117188 768.070312 40.925781 766.617188 C 39.734375 765.164062 38.617188 763.660156 37.574219 762.097656 C 36.53125 760.535156 35.566406 758.929688 34.683594 757.273438 C 33.796875 755.617188 32.996094 753.921875 32.277344 752.1875 C 31.558594 750.453125 30.925781 748.6875 30.378906 746.890625 C 29.835938 745.09375 29.378906 743.273438 29.011719 741.433594 C 28.644531 739.589844 28.371094 737.734375 28.183594 735.867188 C 28 734 27.90625 732.125 27.90625 730.25 " fill-opacity="1" fill-rule="evenodd"/></g><g clip-path="url(#clip-1)"><path fill="rgb(32.548523%, 51.759338%, 76.858521%)" d="M 96.710938 787.597656 L 363.261719 521.09375 L 629.746094 787.597656 Z M 96.710938 787.597656 " fill-opacity="1" fill-rule="evenodd"/></g><g clip-path="url(#clip-2)"><path fill="rgb(100%, 100%, 100%)" d="M 629.746094 787.597656 L 363.214844 521.042969 L 431.96875 452.265625 L 698.523438 718.820312 L 698.523438 730.25 C 698.523438 732.125 698.429688 734 698.246094 735.867188 C 698.0625 737.738281 697.785156 739.59375 697.417969 741.433594 C 697.050781 743.277344 696.59375 745.097656 696.050781 746.894531 C 695.503906 748.691406 694.871094 750.457031 694.152344 752.191406 C 693.433594 753.925781 692.632812 755.621094 691.746094 757.277344 C 690.859375 758.933594 689.894531 760.542969 688.851562 762.105469 C 687.808594 763.667969 686.691406 765.171875 685.5 766.625 C 684.308594 768.078125 683.046875 769.464844 681.71875 770.792969 C 680.390625 772.121094 679.003906 773.382812 677.550781 774.574219 C 676.097656 775.765625 674.59375 776.882812 673.03125 777.925781 C 671.46875 778.96875 669.859375 779.933594 668.203125 780.820312 C 666.546875 781.707031 664.851562 782.507812 663.117188 783.226562 C 661.382812 783.945312 659.617188 784.578125 657.820312 785.125 C 656.023438 785.671875 654.203125 786.125 652.359375 786.492188 C 650.519531 786.859375 648.664062 787.136719 646.792969 787.320312 C 644.925781 787.503906 643.050781 787.597656 641.171875 787.597656 Z M 629.746094 787.597656 " fill-opacity="1" fill-rule="evenodd"/></g><path fill="rgb(76.078796%, 76.078796%, 75.689697%)" d="M 698.523438 718.820312 L 431.96875 452.265625 L 698.523438 185.710938 Z M 698.523438 718.820312 " fill-opacity="1" fill-rule="evenodd"/><path fill="rgb(93.728638%, 93.728638%, 93.728638%)" d="M 147.535156 191.136719 C 181.648438 175.527344 224.34375 181.886719 252.050781 207.441406 L 225.5625 233.738281 C 197.832031 206.246094 145.789062 219.277344 132.808594 255.660156 C 116.074219 291.472656 144.042969 338.542969 183.96875 339.046875 C 210.097656 342.082031 236.179688 324.582031 241.699219 298.550781 C 223.4375 298.574219 205.21875 298.40625 187.003906 298.691406 L 186.667969 264.914062 L 278.46875 266.15625 C 280.761719 288.460938 279.183594 312.128906 267.183594 331.660156 C 248.371094 366.65625 203.976562 381.957031 166.394531 373.113281 C 119.945312 363.480469 85.1875 315.832031 91.519531 268.640625 C 94.75 235.363281 117.03125 204.933594 147.535156 191.136719 " fill-opacity="1" fill-rule="nonzero"/><g clip-path="url(#clip-3)"><path fill="rgb(86.268616%, 29.40979%, 24.308777%)" d="M 581.382812 22.597656 L 603.1875 22.597656 C 657.527344 25.707031 710.644531 52.242188 743.5625 95.917969 C 765.128906 123.507812 777.175781 157.742188 779.902344 192.5 L 779.902344 205.410156 C 778.632812 272.824219 735.507812 328.144531 698.140625 380.570312 C 656.210938 439.8125 617.484375 504.40625 606.726562 577.390625 C 603.855469 589.75 607.296875 607.082031 592.523438 612.652344 C 589.058594 609.953125 584.996094 607.703125 582.554688 603.925781 C 578.179688 563.121094 568.210938 522.789062 550.570312 485.519531 C 530.796875 442.082031 503.304688 402.804688 475.335938 364.433594 C 458.316406 341.414062 442.273438 317.578125 429.007812 292.140625 C 408.160156 254.058594 400.390625 209.066406 408.925781 166.347656 C 415.90625 132.878906 433.546875 101.324219 458.003906 77.175781 C 490.921875 44.976562 535.460938 25.46875 581.382812 22.597656 M 577.152344 141.316406 C 551.382812 147.054688 529.746094 169.863281 527.570312 196.300781 C 527.441406 197.84375 527.367188 199.386719 527.351562 200.933594 C 527.332031 202.476562 527.375 204.023438 527.472656 205.566406 C 527.570312 207.109375 527.726562 208.644531 527.941406 210.175781 C 528.152344 211.707031 528.421875 213.230469 528.75 214.742188 C 529.074219 216.253906 529.457031 217.75 529.894531 219.234375 C 530.328125 220.714844 530.820312 222.179688 531.367188 223.628906 C 531.914062 225.074219 532.511719 226.496094 533.164062 227.898438 C 533.816406 229.300781 534.519531 230.675781 535.273438 232.027344 C 536.027344 233.378906 536.832031 234.695312 537.683594 235.988281 C 538.535156 237.277344 539.433594 238.535156 540.378906 239.757812 C 541.324219 240.980469 542.316406 242.167969 543.347656 243.316406 C 544.382812 244.464844 545.457031 245.574219 546.574219 246.644531 C 547.691406 247.714844 548.847656 248.742188 550.039062 249.726562 C 551.230469 250.707031 552.457031 251.648438 553.722656 252.539062 C 554.984375 253.433594 556.277344 254.277344 557.601562 255.074219 C 558.929688 255.867188 560.28125 256.613281 561.660156 257.3125 C 563.171875 258.082031 564.710938 258.792969 566.273438 259.449219 C 567.835938 260.105469 569.421875 260.699219 571.03125 261.238281 C 572.640625 261.773438 574.265625 262.25 575.910156 262.667969 C 577.554688 263.082031 579.210938 263.4375 580.878906 263.726562 C 582.550781 264.019531 584.230469 264.25 585.917969 264.414062 C 587.605469 264.582031 589.292969 264.683594 590.988281 264.726562 C 592.683594 264.765625 594.378906 264.742188 596.074219 264.65625 C 597.765625 264.570312 599.453125 264.421875 601.136719 264.210938 C 602.816406 263.996094 604.488281 263.722656 606.152344 263.386719 C 607.8125 263.046875 609.460938 262.648438 611.089844 262.191406 C 612.722656 261.730469 614.335938 261.210938 615.929688 260.628906 C 617.523438 260.050781 619.089844 259.410156 620.636719 258.710938 C 622.183594 258.015625 623.699219 257.261719 625.1875 256.449219 C 626.675781 255.640625 628.132812 254.773438 629.558594 253.855469 C 630.984375 252.933594 632.371094 251.964844 633.722656 250.941406 C 635.074219 249.917969 636.386719 248.84375 637.660156 247.722656 C 638.816406 246.671875 639.929688 245.578125 641.003906 244.441406 C 642.074219 243.304688 643.105469 242.128906 644.089844 240.914062 C 645.070312 239.699219 646.007812 238.449219 646.898438 237.164062 C 647.789062 235.878906 648.625 234.5625 649.417969 233.214844 C 650.207031 231.867188 650.945312 230.488281 651.628906 229.082031 C 652.3125 227.679688 652.945312 226.25 653.523438 224.796875 C 654.097656 223.34375 654.621094 221.875 655.085938 220.382812 C 655.550781 218.890625 655.960938 217.382812 656.3125 215.859375 C 656.664062 214.335938 656.957031 212.800781 657.191406 211.257812 C 657.425781 209.710938 657.605469 208.160156 657.722656 206.601562 C 657.839844 205.042969 657.898438 203.480469 657.898438 201.917969 C 657.898438 200.355469 657.835938 198.796875 657.71875 197.238281 C 657.601562 195.679688 657.421875 194.125 657.1875 192.582031 C 656.949219 191.035156 656.65625 189.503906 656.304688 187.980469 C 655.953125 186.457031 655.542969 184.949219 655.074219 183.457031 C 654.609375 181.964844 654.085938 180.492188 653.507812 179.042969 C 641.867188 149.925781 607.371094 133.332031 577.152344 140.792969 " fill-opacity="1" fill-rule="nonzero"/></g><path fill="rgb(50.19989%, 17.248535%, 15.289307%)" d="M 577.152344 141.316406 C 607.347656 133.597656 641.890625 150.164062 653.507812 179.566406 C 663.070312 202.828125 656.472656 231.585938 637.660156 248.25 C 636.386719 249.371094 635.074219 250.445312 633.722656 251.46875 C 632.371094 252.488281 630.984375 253.460938 629.558594 254.382812 C 628.132812 255.300781 626.675781 256.164062 625.1875 256.976562 C 623.699219 257.785156 622.183594 258.542969 620.636719 259.238281 C 619.089844 259.9375 617.523438 260.574219 615.929688 261.15625 C 614.335938 261.734375 612.722656 262.253906 611.089844 262.714844 C 609.460938 263.175781 607.8125 263.574219 606.152344 263.910156 C 604.488281 264.25 602.816406 264.523438 601.136719 264.734375 C 599.453125 264.945312 597.765625 265.097656 596.070312 265.183594 C 594.378906 265.269531 592.683594 265.292969 590.988281 265.25 C 589.292969 265.210938 587.601562 265.109375 585.917969 264.941406 C 584.230469 264.773438 582.550781 264.546875 580.878906 264.253906 C 579.210938 263.960938 577.550781 263.609375 575.910156 263.191406 C 574.265625 262.777344 572.640625 262.300781 571.03125 261.761719 C 569.421875 261.226562 567.835938 260.628906 566.273438 259.976562 C 564.710938 259.320312 563.171875 258.605469 561.660156 257.835938 C 539.429688 246.839844 524.847656 221.667969 527.570312 196.828125 C 529.960938 170.148438 551.382812 147.34375 577.152344 141.84375 " fill-opacity="1" fill-rule="nonzero"/></svg>