<?xml version="1.0" encoding="UTF-8"?><svg xmlns="http://www.w3.org/2000/svg" xmlns:xlink="http://www.w3.org/1999/xlink" width="810" zoomAndPan="magnify" viewBox="0 0 810 809.999993" height="809.999993" preserveAspectRatio="xMidYMid meet" version="1.0"><defs><clipPath id="clip-0"><path d="M 21.058594 21.058594 L 789.058594 21.058594 L 789.058594 789 L 21.058594 789 Z M 21.058594 21.058594 " clip-rule="nonzero"/></clipPath></defs><g clip-path="url(#clip-0)"><path fill="rgb(0.389099%, 52.159119%, 81.568909%)" d="M 703.027344 21.058594 C 575.378906 21.058594 404.097656 108.632812 289.078125 259.195312 L 193.726562 259.195312 C 124.828125 259.195312 85.335938 310.625 58.148438 365.007812 L 21.746094 437.800781 L 193.726562 437.800781 L 283.027344 527.105469 L 372.332031 616.40625 L 372.332031 788.382812 L 445.125 751.992188 C 499.507812 724.796875 550.933594 685.304688 550.933594 616.40625 L 550.933594 521.054688 C 701.5 406.035156 789.074219 234.753906 789.074219 107.101562 L 789.074219 21.058594 Z M 550.933594 199.660156 C 583.816406 199.660156 610.46875 226.316406 610.46875 259.195312 C 610.46875 292.078125 583.816406 318.730469 550.933594 318.730469 C 518.054688 318.730469 491.402344 292.078125 491.402344 259.195312 C 491.402344 226.316406 518.054688 199.660156 550.933594 199.660156 Z M 163.957031 556.871094 L 134.191406 586.640625 C 91.195312 629.636719 74.65625 735.476562 74.65625 735.476562 C 74.65625 735.476562 175.746094 723.6875 223.492188 675.941406 L 253.261719 646.171875 Z M 163.957031 556.871094 " fill-opacity="1" fill-rule="nonzero"/></g></svg>