<?xml version="1.0" encoding="UTF-8"?><svg xmlns="http://www.w3.org/2000/svg" xmlns:xlink="http://www.w3.org/1999/xlink" width="810" zoomAndPan="magnify" viewBox="0 0 810 809.999993" height="809.999993" preserveAspectRatio="xMidYMid meet" version="1.0"><defs><filter x="0%" y="0%" width="100%" xmlns:xlink="http://www.w3.org/1999/xlink" xlink:type="simple" xlink:actuate="onLoad" height="100%" id="filter-remove-color" xlink:show="other"><feColorMatrix values="0 0 0 0 1 0 0 0 0 1 0 0 0 0 1 0 0 0 1 0" color-interpolation-filters="sRGB"/></filter><mask id="mask-0"><g filter="url(#filter-remove-color)"><rect x="-81" width="972" fill="rgb(0%, 0%, 0%)" y="-80.999999" height="971.999992" fill-opacity="0.1294"/></g></mask><clipPath id="clip-0"><path d="M 0.5625 3 L 360 3 L 360 586.480469 L 0.5625 586.480469 Z M 0.5625 3 " clip-rule="nonzero"/></clipPath><clipPath id="clip-1"><path d="M 389 3 L 751.3125 3 L 751.3125 586.480469 L 389 586.480469 Z M 389 3 " clip-rule="nonzero"/></clipPath><clipPath id="clip-2"><rect x="0" width="752" y="0" height="587"/></clipPath></defs><g mask="url(#mask-0)"><g transform="matrix(1, 0, 0, 1, 29, 110)"><g id="source-5" clip-path="url(#clip-2)"><g clip-path="url(#clip-0)"><path fill="rgb(18.429565%, 18.429565%, 18.429565%)" d="M 52.117188 530.632812 C 84.039062 563.816406 123.90625 581.4375 171.53125 583.800781 C 180.332031 585.28125 189.308594 586.242188 198.523438 586.242188 C 249.976562 586.242188 295.683594 562.089844 325.242188 524.589844 C 341.390625 505.65625 351.613281 484.53125 355.660156 461.117188 C 358.339844 449.4375 359.894531 437.324219 359.894531 424.824219 C 359.894531 335.660156 287.636719 263.402344 198.523438 263.402344 C 162.191406 263.402344 128.835938 275.5625 101.847656 295.769531 C 101.792969 293.742188 101.503906 291.871094 101.503906 289.753906 C 101.503906 204.175781 166.710938 118.664062 297.101562 33.113281 L 278.191406 3.644531 C 93.109375 118.640625 0.5625 244.863281 0.5625 382.347656 C 0.5625 445.429688 17.785156 494.851562 52.117188 530.632812 Z M 52.117188 530.632812 " fill-opacity="1" fill-rule="nonzero"/></g><g clip-path="url(#clip-1)"><path fill="rgb(18.429565%, 18.429565%, 18.429565%)" d="M 563.867188 583.9375 C 572.359375 585.304688 581.035156 586.242188 589.941406 586.242188 C 679.054688 586.242188 751.3125 513.960938 751.3125 424.824219 C 751.3125 335.691406 679.054688 263.402344 589.941406 263.402344 C 552.664062 263.402344 518.417969 276.175781 491.050781 297.453125 C 490.917969 294.890625 490.609375 292.480469 490.609375 289.753906 C 490.609375 204.175781 555.796875 118.664062 686.207031 33.113281 L 667.28125 3.644531 C 482.214844 118.640625 389.664062 244.863281 389.664062 382.347656 C 389.664062 445.457031 406.855469 494.910156 441.195312 530.664062 C 473.828125 564.589844 514.789062 582.230469 563.867188 583.9375 Z M 563.867188 583.9375 " fill-opacity="1" fill-rule="nonzero"/></g></g></g></g></svg>