<?xml version="1.0" encoding="UTF-8"?><svg xmlns="http://www.w3.org/2000/svg" xmlns:xlink="http://www.w3.org/1999/xlink" width="810" zoomAndPan="magnify" viewBox="0 0 810 809.999993" height="809.999993" preserveAspectRatio="xMidYMid meet" version="1.0"><defs><clipPath id="clip-0"><path d="M 22 623 L 161 623 L 161 764.726562 L 22 764.726562 Z M 22 623 " clip-rule="nonzero"/></clipPath><clipPath id="clip-1"><path d="M 231 553 L 370 553 L 370 764.726562 L 231 764.726562 Z M 231 553 " clip-rule="nonzero"/></clipPath><clipPath id="clip-2"><path d="M 440 484 L 579 484 L 579 764.726562 L 440 764.726562 Z M 440 484 " clip-rule="nonzero"/></clipPath><clipPath id="clip-3"><path d="M 648 415 L 788 415 L 788 764.726562 L 648 764.726562 Z M 648 415 " clip-rule="nonzero"/></clipPath><clipPath id="clip-4"><path d="M 522 45.476562 L 742 45.476562 L 742 274 L 522 274 Z M 522 45.476562 " clip-rule="nonzero"/></clipPath></defs><g clip-path="url(#clip-0)"><path fill="rgb(0.389099%, 52.159119%, 81.568909%)" d="M 160.316406 932.464844 L 22.269531 932.464844 L 22.269531 623.136719 L 160.316406 623.136719 L 160.316406 932.464844 " fill-opacity="1" fill-rule="nonzero"/></g><g clip-path="url(#clip-1)"><path fill="rgb(0.389099%, 52.159119%, 81.568909%)" d="M 369.222656 932.464844 L 231.175781 932.464844 L 231.175781 553.820312 L 369.222656 553.820312 L 369.222656 932.464844 " fill-opacity="1" fill-rule="nonzero"/></g><g clip-path="url(#clip-2)"><path fill="rgb(0.389099%, 52.159119%, 81.568909%)" d="M 578.140625 932.464844 L 440.09375 932.464844 L 440.09375 484.503906 L 578.140625 484.503906 L 578.140625 932.464844 " fill-opacity="1" fill-rule="nonzero"/></g><g clip-path="url(#clip-3)"><path fill="rgb(0.389099%, 52.159119%, 81.568909%)" d="M 787.058594 932.464844 L 648.996094 932.464844 L 648.996094 415.203125 L 787.058594 415.203125 L 787.058594 932.464844 " fill-opacity="1" fill-rule="nonzero"/></g><g clip-path="url(#clip-4)"><path fill="rgb(0.389099%, 52.159119%, 81.568909%)" d="M 738.371094 273.640625 L 522.875 110.195312 L 741.585938 45.386719 Z M 738.371094 273.640625 " fill-opacity="1" fill-rule="nonzero"/></g><path fill="rgb(0.389099%, 52.159119%, 81.568909%)" d="M 46.078125 503.875 C 46.078125 503.875 377.628906 482.566406 579.9375 124.851562 L 681.746094 146.378906 L 691.226562 225.25 C 691.226562 225.25 442.6875 554.164062 46.078125 503.875 " fill-opacity="1" fill-rule="nonzero"/></svg>