<?xml version="1.0" encoding="UTF-8"?><svg xmlns="http://www.w3.org/2000/svg" xmlns:xlink="http://www.w3.org/1999/xlink" width="810" zoomAndPan="magnify" viewBox="0 0 810 809.999993" height="809.999993" preserveAspectRatio="xMidYMid meet" version="1.0"><defs><clipPath id="clip-0"><path d="M 172.722656 216.808594 L 649.722656 216.808594 L 649.722656 593.308594 L 172.722656 593.308594 Z M 172.722656 216.808594 " clip-rule="nonzero"/></clipPath></defs><path fill="rgb(0.389099%, 52.159119%, 81.568909%)" d="M 405.054688 22.554688 C 193.804688 22.554688 22.554688 193.804688 22.554688 405.054688 C 22.554688 616.304688 193.804688 787.554688 405.054688 787.554688 C 616.304688 787.554688 787.554688 616.304688 787.554688 405.054688 C 787.554688 193.804688 616.304688 22.554688 405.054688 22.554688 Z M 405.054688 22.554688 " fill-opacity="1" fill-rule="nonzero"/><g clip-path="url(#clip-0)"><path fill="rgb(100%, 100%, 100%)" d="M 641.378906 518.207031 L 633.097656 518.207031 L 633.097656 283.867188 C 633.097656 270.054688 621.804688 258.75 608 258.75 L 357.007812 258.75 L 357.007812 241.921875 C 357.007812 228.109375 345.714844 216.808594 331.910156 216.808594 L 197.878906 216.808594 C 184.074219 216.808594 172.78125 228.109375 172.78125 241.921875 L 172.78125 308.984375 C 172.78125 322.800781 184.074219 334.101562 197.878906 334.101562 L 197.878906 518.207031 L 189.597656 518.207031 C 185.078125 518.207031 181.3125 521.976562 181.3125 526.496094 L 181.3125 559.902344 C 181.3125 578.488281 196.375 593.308594 214.695312 593.308594 L 616.28125 593.308594 C 634.855469 593.308594 649.664062 578.238281 649.664062 559.902344 L 649.664062 526.496094 C 649.664062 521.976562 645.898438 518.207031 641.378906 518.207031 Z M 189.597656 308.984375 L 189.597656 241.921875 C 189.597656 237.402344 193.363281 233.636719 197.878906 233.636719 L 331.65625 233.636719 C 336.175781 233.636719 339.941406 237.402344 339.941406 241.921875 L 339.941406 308.984375 C 339.941406 313.507812 336.175781 317.273438 331.65625 317.273438 L 314.839844 317.273438 C 310.324219 317.273438 306.558594 321.042969 306.558594 325.5625 L 306.558594 343.394531 L 269.410156 318.53125 C 268.15625 317.777344 266.398438 317.273438 264.894531 317.273438 L 197.878906 317.273438 C 193.363281 317.273438 189.597656 313.507812 189.597656 308.984375 Z M 214.695312 334.101562 L 262.382812 334.101562 L 310.574219 366.25 C 312.082031 367.257812 313.585938 367.757812 315.09375 367.757812 C 316.347656 367.757812 317.851562 367.507812 319.109375 366.753906 C 321.867188 365.246094 323.625 362.484375 323.625 359.46875 L 323.625 334.351562 L 331.910156 334.351562 C 345.714844 334.351562 357.007812 323.050781 357.007812 309.234375 L 357.007812 275.328125 L 608 275.328125 C 612.515625 275.328125 616.28125 279.097656 616.28125 283.617188 L 616.28125 518.207031 L 214.695312 518.207031 Z M 632.847656 560.152344 C 632.847656 569.445312 625.316406 576.980469 616.03125 576.980469 L 214.445312 576.980469 C 205.160156 576.980469 197.628906 569.445312 197.628906 560.152344 L 197.628906 535.035156 L 632.847656 535.035156 Z M 632.847656 560.152344 " fill-opacity="1" fill-rule="nonzero"/></g><path fill="rgb(100%, 100%, 100%)" d="M 448.871094 543.324219 L 390.390625 543.324219 C 385.871094 543.324219 382.105469 547.09375 382.105469 551.613281 C 382.105469 556.132812 385.871094 559.902344 390.390625 559.902344 L 448.871094 559.902344 C 453.386719 559.902344 457.152344 556.132812 457.152344 551.613281 C 457.152344 547.09375 453.386719 543.324219 448.871094 543.324219 Z M 448.871094 543.324219 " fill-opacity="1" fill-rule="nonzero"/><path fill="rgb(100%, 100%, 100%)" d="M 415.488281 400.914062 C 438.578125 400.914062 457.402344 382.074219 457.402344 358.96875 C 457.402344 335.859375 438.578125 317.273438 415.488281 317.273438 C 392.398438 317.273438 373.574219 336.109375 373.574219 359.21875 C 373.574219 382.324219 392.398438 400.914062 415.488281 400.914062 Z M 415.488281 334.101562 C 429.292969 334.101562 440.585938 345.40625 440.585938 359.21875 C 440.585938 373.03125 429.292969 384.335938 415.488281 384.335938 C 401.683594 384.335938 390.390625 373.03125 390.390625 359.21875 C 390.390625 345.40625 401.683594 334.101562 415.488281 334.101562 Z M 415.488281 334.101562 " fill-opacity="1" fill-rule="nonzero"/><path fill="rgb(100%, 100%, 100%)" d="M 432.054688 409.453125 L 398.671875 409.453125 C 371.0625 409.453125 348.472656 432.058594 348.472656 459.6875 L 348.472656 501.628906 C 348.472656 506.152344 352.238281 509.917969 356.757812 509.917969 L 473.96875 509.917969 C 478.488281 509.917969 482.253906 506.152344 482.253906 501.628906 L 482.253906 459.6875 C 482.253906 431.804688 459.914062 409.453125 432.054688 409.453125 Z M 465.6875 493.089844 L 365.289062 493.089844 L 365.289062 459.6875 C 365.289062 441.097656 380.351562 426.28125 398.671875 426.28125 L 432.054688 426.28125 C 450.628906 426.28125 465.4375 441.351562 465.4375 459.6875 L 465.4375 493.089844 Z M 465.6875 493.089844 " fill-opacity="1" fill-rule="nonzero"/><path fill="rgb(100%, 100%, 100%)" d="M 214.695312 258.75 L 315.09375 258.75 C 319.609375 258.75 323.375 254.984375 323.375 250.464844 C 323.375 245.941406 319.609375 241.921875 315.09375 241.921875 L 214.695312 241.921875 C 210.179688 241.921875 206.414062 245.691406 206.414062 250.210938 C 206.414062 254.734375 209.925781 258.75 214.695312 258.75 Z M 214.695312 258.75 " fill-opacity="1" fill-rule="nonzero"/><path fill="rgb(100%, 100%, 100%)" d="M 214.695312 283.867188 L 315.09375 283.867188 C 319.609375 283.867188 323.375 280.101562 323.375 275.578125 C 323.375 271.058594 319.609375 267.292969 315.09375 267.292969 L 214.695312 267.292969 C 210.179688 267.292969 206.414062 271.058594 206.414062 275.578125 C 206.164062 280.101562 209.925781 283.867188 214.695312 283.867188 Z M 214.695312 283.867188 " fill-opacity="1" fill-rule="nonzero"/><path fill="rgb(100%, 100%, 100%)" d="M 214.695312 308.984375 L 315.09375 308.984375 C 319.609375 308.984375 323.375 305.21875 323.375 300.695312 C 323.375 296.175781 319.609375 292.40625 315.09375 292.40625 L 214.695312 292.40625 C 210.179688 292.40625 206.414062 296.175781 206.414062 300.695312 C 206.164062 305.21875 209.925781 308.984375 214.695312 308.984375 Z M 214.695312 308.984375 " fill-opacity="1" fill-rule="nonzero"/></svg>