<svg id="Layer_1" data-name="Layer 1" xmlns="http://www.w3.org/2000/svg" viewBox="0 0 759.82 352.2"><defs><style>.cls-1{fill:#1b75bc;}.cls-2{fill:#fff;}</style></defs><title>BtS svg</title><path class="cls-1" d="M264.52,390.53c-3.56,0-7.36-.16-11.29-.5s-7.74-.76-11.5-1.28-7.45-1.17-10.85-1.9-6.54-1.5-9.23-2.3l-2.16-.65V235.47l35.17-5.66v50.3a57,57,0,0,1,6.47-1.84,55.14,55.14,0,0,1,12-1.25,49.55,49.55,0,0,1,20.59,4.09,41,41,0,0,1,15.17,11.7A51.74,51.74,0,0,1,318,310.74a80.39,80.39,0,0,1,3.06,22.84,68.29,68.29,0,0,1-3.8,23.31A50.3,50.3,0,0,1,306.16,375a49.11,49.11,0,0,1-17.9,11.56A66.14,66.14,0,0,1,264.52,390.53Zm-9.86-31.43c.81.1,1.72.2,2.7.28,2.12.19,4.46.28,7,.28,7,0,12.08-2.28,15.54-7,3.63-4.92,5.46-11.61,5.46-19.89,0-22.5-10.08-25.1-17.67-25.1a31.47,31.47,0,0,0-8.11,1.07,26.26,26.26,0,0,0-4.88,1.77Z" transform="translate(-213 -229.81)"/><path class="cls-1" d="M389.94,390.73c-9.59,0-18.09-1.45-25.25-4.32a50.2,50.2,0,0,1-18.08-12,47.84,47.84,0,0,1-10.63-18,70.19,70.19,0,0,1-3.38-22c0-9.48,1.49-17.92,4.43-25.09a54.31,54.31,0,0,1,11.7-18.08,49,49,0,0,1,16.75-11,52.37,52.37,0,0,1,19.38-3.73c15.38,0,27.75,4.82,36.78,14.32s13.53,23.42,13.53,41.46c0,1.71-.07,3.65-.2,5.76s-.27,3.85-.4,5.42l-.23,2.79H369.2a16.23,16.23,0,0,0,6.48,8.76c4.4,3.13,10.51,4.71,18.17,4.71A81.29,81.29,0,0,0,409,358.25,56.62,56.62,0,0,0,421,354.84l.19.12,8.3,28-2,1a42.28,42.28,0,0,1-6.74,2.54,87,87,0,0,1-9,2.13c-3.26.59-6.78,1.1-10.49,1.5A106.18,106.18,0,0,1,389.94,390.73Zm15.52-69.16a31.57,31.57,0,0,0-.95-4,18.12,18.12,0,0,0-3.32-6.26,17.54,17.54,0,0,0-5.65-4.46,18.73,18.73,0,0,0-8.53-1.71,19.9,19.9,0,0,0-8.53,1.65,17.24,17.24,0,0,0-5.82,4.35,20,20,0,0,0-3.67,6.46c-.46,1.3-.86,2.62-1.2,3.95Z" transform="translate(-213 -229.81)"/><path class="cls-1" d="M494.27,390.34c-8.31,0-15.34-1.16-20.89-3.45a34.11,34.11,0,0,1-13.7-9.88,36.54,36.54,0,0,1-7.15-15.21A85.84,85.84,0,0,1,450.6,343V254l35.17-5.67v30.81h35v30.29h-35v33.11c0,5.55.94,10,2.8,13.11,1.56,2.65,5.05,4,10.38,4a53.11,53.11,0,0,0,9.15-.83,46.36,46.36,0,0,0,8.53-2.29l3.41-1.3,5.19,28.67-2.27.93a86.17,86.17,0,0,1-12.16,3.85A71.77,71.77,0,0,1,494.27,390.34Z" transform="translate(-213 -229.81)"/><path class="cls-1" d="M581,390.34c-8.3,0-15.33-1.16-20.88-3.45a34.11,34.11,0,0,1-13.7-9.88,36.54,36.54,0,0,1-7.15-15.21A85.84,85.84,0,0,1,537.34,343V254l35.17-5.67v30.81h35v30.29h-35v33.11c0,5.55.94,10,2.8,13.11,1.56,2.65,5.05,4,10.38,4a53.2,53.2,0,0,0,9.15-.83,46.8,46.8,0,0,0,8.53-2.29l3.41-1.3L612,383.91l-2.28.93a85.61,85.61,0,0,1-12.15,3.85A71.87,71.87,0,0,1,581,390.34Z" transform="translate(-213 -229.81)"/><path class="cls-1" d="M673.61,390.73c-9.59,0-18.09-1.45-25.26-4.32a50.08,50.08,0,0,1-18.07-12,47.73,47.73,0,0,1-10.64-18,70.19,70.19,0,0,1-3.38-22c0-9.48,1.49-17.92,4.43-25.09a54.62,54.62,0,0,1,11.7-18.08,48.89,48.89,0,0,1,16.76-11,52.33,52.33,0,0,1,19.38-3.73c15.37,0,27.75,4.82,36.77,14.32s13.53,23.42,13.53,41.46c0,1.73-.06,3.62-.2,5.76s-.26,3.85-.39,5.42l-.23,2.79H652.86a16.33,16.33,0,0,0,6.48,8.76c4.4,3.13,10.52,4.71,18.17,4.71a81.13,81.13,0,0,0,15.16-1.41,56.56,56.56,0,0,0,12-3.41l.19.12,8.29,28-2,1a42.12,42.12,0,0,1-6.73,2.54,87.22,87.22,0,0,1-9,2.13c-3.25.59-6.78,1.1-10.48,1.5A106.32,106.32,0,0,1,673.61,390.73Zm15.51-69.16a31.54,31.54,0,0,0-.94-4,18.12,18.12,0,0,0-3.32-6.26,17.65,17.65,0,0,0-5.65-4.46,18.74,18.74,0,0,0-8.54-1.71,19.82,19.82,0,0,0-8.52,1.65,17.19,17.19,0,0,0-5.83,4.35,20.2,20.2,0,0,0-3.67,6.46c-.45,1.3-.85,2.62-1.19,3.95Z" transform="translate(-213 -229.81)"/><path class="cls-1" d="M735.24,388V285.52l2-.71a181.42,181.42,0,0,1,18.78-5.27A110.13,110.13,0,0,1,780.47,277c1.64,0,3.64.11,5.93.31s4.51.46,6.81.8,4.56.74,6.82,1.2a35.79,35.79,0,0,1,6.22,1.83l2.3,1-6,29.58-3.07-.77c-2.57-.64-5.61-1.32-9.06-2a54.14,54.14,0,0,0-10.72-1,50.1,50.1,0,0,0-6.17.46c-1.19.15-2.23.31-3.11.47V388Z" transform="translate(-213 -229.81)"/><path class="cls-2" d="M251.82,548.6c-9.33,0-17.24-.82-23.52-2.44a94.5,94.5,0,0,1-13.07-4.07l-2.23-1,6.11-29.55,3.35,1.32a93.08,93.08,0,0,0,14.75,4.45A71.83,71.83,0,0,0,252,518.9c6.06,0,8.8-.69,10-1.27.51-.25,1.58-.75,1.58-3.32,0-.45,0-1.82-2.86-3.57A78.93,78.93,0,0,0,248.21,505a135.24,135.24,0,0,1-12.67-5.39,39.5,39.5,0,0,1-10.25-7.09,29.43,29.43,0,0,1-6.75-10.11,36.63,36.63,0,0,1-2.37-13.84c0-10.58,4-19.07,11.9-25.25,7.68-6,18.23-9,31.37-9A99,99,0,0,1,278,436a87.62,87.62,0,0,1,14.18,3.76l2.45.94-6.4,28.53-3.2-1.11a106.53,106.53,0,0,0-10.73-3,57.71,57.71,0,0,0-12.7-1.29c-10.65,0-10.65,3.46-10.65,4.59a5,5,0,0,0,.34,1.93,3.86,3.86,0,0,0,1.34,1.38,29.75,29.75,0,0,0,4.34,2.48c1.92.94,4.43,2,7.46,3.13a123.07,123.07,0,0,1,16.21,7.18,40.9,40.9,0,0,1,10.65,8.06,26,26,0,0,1,5.74,10,42.51,42.51,0,0,1,1.59,12.18c0,11.15-4.29,19.73-12.75,25.51C277.76,545.8,266.31,548.6,251.82,548.6Z" transform="translate(-213 -229.81)"/><path class="cls-2" d="M361.22,548.21c-9.08,0-16.79-1.26-22.92-3.74a36.2,36.2,0,0,1-15-10.78,41.66,41.66,0,0,1-7.81-16.31,85,85,0,0,1-2.23-20.07V437h35.17V493.8c0,8.78,1.1,15.1,3.28,18.77,1.91,3.21,5.59,4.77,11.27,4.77,2,0,4.14-.1,6.39-.29,1.25-.1,2.41-.21,3.47-.33V437H408V541.59l-2.18.64a164,164,0,0,1-19.52,4.08A160.72,160.72,0,0,1,361.22,548.21Z" transform="translate(-213 -229.81)"/><path class="cls-2" d="M429.3,582V441.34l2.16-.65c2.66-.8,5.77-1.58,9.23-2.31s7.11-1.37,10.85-1.89,7.64-1,11.5-1.29,7.73-.5,11.3-.5a66.43,66.43,0,0,1,23.74,4A49.8,49.8,0,0,1,516,450.16a49.28,49.28,0,0,1,11.14,18,68.27,68.27,0,0,1,3.8,23.3A78.6,78.6,0,0,1,527.84,514a52.05,52.05,0,0,1-9.14,17.83,42.06,42.06,0,0,1-15.15,11.79,48.62,48.62,0,0,1-20.62,4.19,55.21,55.21,0,0,1-12-1.25,59,59,0,0,1-6.47-1.83V582Zm35.17-67.7a26.56,26.56,0,0,0,4.88,1.76,31.53,31.53,0,0,0,8.11,1.07c7.59,0,17.68-2.58,17.68-24.9,0-8.28-1.84-14.93-5.45-19.78-3.47-4.64-8.55-6.89-15.55-6.89-2.51,0-4.85.09-7,.28-1,.09-1.89.18-2.71.28Z" transform="translate(-213 -229.81)"/><path class="cls-2" d="M547.3,582V441.34l2.16-.65c2.66-.8,5.77-1.58,9.23-2.31s7.11-1.37,10.85-1.89,7.64-1,11.5-1.29,7.73-.5,11.29-.5a66.45,66.45,0,0,1,23.75,4A49.76,49.76,0,0,1,634,450.16a49.25,49.25,0,0,1,11.15,18,68.52,68.52,0,0,1,3.79,23.3A78.6,78.6,0,0,1,645.83,514a51.94,51.94,0,0,1-9.13,17.83,42.15,42.15,0,0,1-15.15,11.79,48.62,48.62,0,0,1-20.62,4.19,55.21,55.21,0,0,1-12-1.25,59,59,0,0,1-6.47-1.83V582Zm35.17-67.7a26.29,26.29,0,0,0,4.88,1.76,31.47,31.47,0,0,0,8.11,1.07c7.59,0,17.68-2.58,17.68-24.9,0-8.28-1.84-14.93-5.46-19.78-3.46-4.64-8.55-6.89-15.54-6.89-2.51,0-4.85.09-7,.28-1,.09-1.89.18-2.71.28Z" transform="translate(-213 -229.81)"/><path class="cls-2" d="M814,546.87V444.4l2-.71a181.42,181.42,0,0,1,18.78-5.27,110.06,110.06,0,0,1,24.42-2.52c1.64,0,3.63.11,5.93.31s4.51.46,6.81.8,4.55.74,6.82,1.2A35.79,35.79,0,0,1,885,440l2.3,1-6,29.58-3.07-.77c-2.57-.64-5.62-1.32-9.06-2a54.27,54.27,0,0,0-10.72-1,50.23,50.23,0,0,0-6.17.47c-1.19.15-2.23.31-3.11.47v79.16Z" transform="translate(-213 -229.81)"/><path class="cls-2" d="M941.86,549.22c-8.31,0-15.33-1.16-20.89-3.45a34.18,34.18,0,0,1-13.7-9.88,36.66,36.66,0,0,1-7.15-15.21,85.78,85.78,0,0,1-1.93-18.84V412.91l35.17-5.67v30.81h35v30.29h-35v33.11c0,5.54.95,10,2.81,13.11,1.55,2.64,5.05,4,10.38,4a53.09,53.09,0,0,0,9.14-.83,46.36,46.36,0,0,0,8.53-2.29l3.41-1.3,5.19,28.67-2.27.93a85.61,85.61,0,0,1-12.15,3.85A71.87,71.87,0,0,1,941.86,549.22Z" transform="translate(-213 -229.81)"/><path class="cls-1" d="M677.55,494.61a53.56,53.56,0,0,0,.61,8.06L663.28,516.3,678,541.84l19.26-6.08a52.48,52.48,0,0,0,13.93,8l4.36,19.71h29.5l4.37-19.71a52.58,52.58,0,0,0,13.92-8l19.26,6.08,14.75-25.54L782.5,502.67a52.64,52.64,0,0,0,0-16.11l14.88-13.63-14.75-25.55-19.26,6.08a53.13,53.13,0,0,0-13.92-8l-4.37-19.71h-29.5l-4.36,19.71a53,53,0,0,0-13.93,8L678,447.38l-14.75,25.55,14.88,13.63A53.53,53.53,0,0,0,677.55,494.61Zm74.74-17a27.77,27.77,0,0,1-18.22,44.52,25.12,25.12,0,0,1-7.48,0,27.77,27.77,0,0,1,0-55,24.26,24.26,0,0,1,7.48,0A27.66,27.66,0,0,1,752.29,477.61Z" transform="translate(-213 -229.81)"/></svg>